<svg width="1333" height="1218" viewBox="0 0 1333 1218" fill="none" xmlns="http://www.w3.org/2000/svg">
<circle cx="666" cy="575" r="500" fill="#1876D3"/>
<path d="M310.865 566.9L429.647 670.58L607.82 515.06L566.988 479.42L429.647 597.68L351.697 531.26L310.865 566.9ZM310.865 356.3L429.647 459.98L607.82 304.46L566.988 268.82L429.647 387.08L351.697 320.66L310.865 356.3ZM310.865 777.5L429.647 881.18L607.82 725.66L566.988 690.02L429.647 808.28L351.697 741.86L310.865 777.5Z" fill="white"/>
<path d="M682.058 542.6H1053.25V607.4H682.058V542.6ZM682.058 332H1053.25V396.8H682.058V332ZM682.058 753.2H1053.25V818H682.058V753.2Z" fill="white"/>
</svg>
